lc = 1.0;
Point(1) = {0, 0, 0, lc};
Point(2) = {1, 0, 0, lc};
Point(3) = {0, 1, 0, lc};
Point(4) = {-1, 0, 0, lc};
Point(5) = {0, 0, 1, lc};
Line(1) = {1, 2};
Line(3) = {2, 3};
Line(4) = {3, 4};
Line(5) = {4, 1};
Line(6) = {4, 5};
Line(7) = {5, 2};
Line(8) = {5, 3};
Line Loop(9) = {1, 3, 4, 5};
Plane Surface(10) = {9};
Line Loop(11) = {4, 6, 8};
Plane Surface(12) = {11};
Line Loop(13) = {3, -8, 7};
Plane Surface(14) = {13};
Line Loop(15) = {6, 7, -1, -5};
Plane Surface(16) = {15};
Surface Loop(17) = {16, 12, 10, 14};
Volume(18) = {17};
Physical Volume(19) = {18};
