Point(1) = {0, 0, 0, 1.0};
Point(2) = {1, 0, 0, 1.0};
Point(3) = {0, 1, 0, 1.0};
Point(4) = {0, -1, 0, 1.0};
Point(5) = {-1, 0, 0, 1.0};
Point(7) = {0.5, 0.5, 0, 1.0};
Point(8) = {0.5, -0.5, 0, 1.0};
Point(9) = {-0.5, 0.5, 0, 1.0};
Point(10) = {-0.5, -0.5, 0, 1.0};
Point(11) = {0, 0, 1, 1.0};
Line(1) = {4, 8};
Line(2) = {8, 2};
Line(3) = {2, 7};
Line(4) = {7, 3};
Line(5) = {3, 9};
Line(6) = {9, 5};
Line(7) = {5, 10};
Line(8) = {10, 4};
Line(9) = {4, 11};
Line(10) = {11, 5};
Line(11) = {11, 3};
Line(12) = {11, 2};
Line Loop(13) = {2, 3, 4, 5, 6, 7, 8, 1};
Plane Surface(14) = {13};
Line Loop(15) = {10, 7, 8, 9};
Plane Surface(16) = {15};
Line Loop(17) = {9, 12, -2, -1};
Plane Surface(18) = {17};
Line Loop(19) = {12, 3, 4, -11};
Plane Surface(20) = {19};
Line Loop(21) = {11, 5, 6, -10};
Plane Surface(22) = {21};
Surface Loop(23) = {18, 16, 22, 20, 14};
Volume(24) = {23};
Physical Volume(25) = {24};
