Point(1) = {0, 0, 0, 1.0};
Point(2) = {1, 0, 0, 1.0};
Point(3) = {0, 1, 0, 1.0};
Point(4) = {0, 0, -1, 1.0};
Point(5) = {0, 0, 1, 1.0};
Line(1) = {3, 1};
Line(2) = {1, 2};
Line(3) = {2, 3};
Line(4) = {3, 5};
Line(5) = {1, 5};
Line(6) = {2, 5};
Line(7) = {4, 2};
Line(8) = {4, 1};
Line(9) = {4, 3};
Line Loop(10) = {4, -6, 3};
Plane Surface(11) = {10};
Line Loop(12) = {2, 6, -5};
Plane Surface(13) = {12};
Line Loop(14) = {1, 5, -4};
Plane Surface(15) = {14};
Line Loop(16) = {9, 1, -8};
Plane Surface(17) = {16};
Line Loop(18) = {7, 3, -9};
Plane Surface(19) = {18};
Line Loop(20) = {7, -2, -8};
Plane Surface(21) = {20};
Surface Loop(22) = {21, 19, 11, 15, 17, 13};
Volume(23) = {22};

Physical Volume(24) = {23};
Transfinite Line {1, 2, 3, 4, 5, 6, 7, 8, 9} = 2;
